<svg xmlns="http://www.w3.org/2000/svg" width="1024" height="1024" viewBox="0 0 1024 1024" role="img" aria-label="MyResCal app icon">
  <defs>
    <filter id="softShadow" x="-20%" y="-20%" width="140%" height="140%">
      <feDropShadow dx="0" dy="14" stdDeviation="18" flood-color="#000000" flood-opacity="0.10"/>
    </filter>
  </defs>
  <g fill="none" stroke="#FFFFFF" stroke-linecap="round" stroke-linejoin="round" filter="url(#softShadow)">
    <rect x="178" y="160" width="668" height="668" rx="104" stroke-width="44"/>
    <line x1="355" y1="142" x2="355" y2="248" stroke-width="48"/>
    <line x1="669" y1="142" x2="669" y2="248" stroke-width="48"/>
    <line x1="418" y1="197" x2="606" y2="197" stroke-width="36"/>
  </g>

  <g>
    <rect x="302" y="320" width="72" height="72" rx="14" fill="#FFFFFF" stroke="none" stroke-width="14"/>
    <rect x="476" y="320" width="72" height="72" rx="14" fill="#FFFFFF" stroke="none" stroke-width="14"/>
    <rect x="650" y="320" width="72" height="72" rx="14" fill="#FFFFFF" stroke="none" stroke-width="14"/>
    <rect x="302" y="492" width="72" height="72" rx="14" fill="#FFFFFF" stroke="none" stroke-width="14"/>
    <rect x="476" y="492" width="72" height="72" rx="14" fill="#FFFFFF" stroke="none" stroke-width="14"/>
    <rect x="650" y="492" width="72" height="72" rx="14" fill="#FFFFFF"/>
    <path d="M672 528 L694 550 L740 500" fill="none" stroke="#152832" stroke-width="32" stroke-linecap="round" stroke-linejoin="round"/>
  </g>

  <g>
    <path d="M190 780 L365 626 L578 820 L260 820 C222 820 196 804 190 780Z" fill="#FFFFFF" opacity="0.92"/>
    <path d="M455 820 L655 642 L834 796 C827 811 808 820 784 820Z" fill="#FFFFFF" opacity="0.92"/>
    <path d="M365 626 L430 684 L392 672 L350 718 L310 676Z" fill="#FFFFFF" opacity="0.95"/>
    <path d="M655 642 L714 692 L677 680 L625 728 L588 690Z" fill="#FFFFFF" opacity="0.95"/>
  </g>
</svg>